<svg xmlns="http://www.w3.org/2000/svg" viewBox="0 0 50 50.32"><defs><style>.cls-1{fill:#2d2d2d;}</style></defs><title>LinkedIn</title><g id="Layer_2" data-name="Layer 2"><g id="Layer_1-2" data-name="Layer 1"><path class="cls-1" d="M42.39,42.12H34.84V30c0-3.05-1.1-5.13-3.83-5.13a4.11,4.11,0,0,0-3.87,2.76,5.12,5.12,0,0,0-.25,1.84V42.12H19.34s.09-20.59,0-22.72h7.55v3.22a7.49,7.49,0,0,1,6.8-3.76c5,0,8.7,3.25,8.7,10.23v13Zm-31-25.82h-.05a3.94,3.94,0,1,1,.1-7.85,3.94,3.94,0,1,1,0,7.85Zm3.78,25.82H7.6V19.4h7.56ZM46.3,0H3.69A3.64,3.64,0,0,0,0,3.6V46.71a3.65,3.65,0,0,0,3.69,3.61H46.3A3.65,3.65,0,0,0,50,46.71V3.6A3.65,3.65,0,0,0,46.3,0Z"/></g></g></svg>